<svg xmlns="http://www.w3.org/2000/svg" width="180" height="38" viewBox="0 0 180 38" fill="currentColor"><path d="M48.2 9.6v18.7h-4.2V9.6h4.2z"/><path d="M55.6 12.3c1.1-1.2 2.7-1.9 4.7-1.9 2 0 3.6.7 4.7 1.9 1.1 1.2 1.7 2.9 1.7 4.9v11.1h-4.1V17.5c0-.9-.2-1.6-.7-2.1s-1.1-.7-1.9-.7c-.8 0-1.5.2-2 .7s-.7 1.2-.7 2.1v11.7h-4.1V10.5h4.1v1.8h.3z"/><path d="M72.1 10.5h3.9v18.2h-3.9V10.5zM74 7.5c-.6 0-1.1-.2-1.5-.6-.4-.4-.6-.9-.6-1.5 0-.6.2-1.1.6-1.5.4-.4.9-.6 1.5-.6s1.1.2 1.5.6c.4.4.6.9.6 1.5 0 .6-.2 1.1-.6 1.5-.4.4-.9.6-1.5.6z"/><path d="M85.7 22.7c0 .8.2 1.4.7 1.8s1 .6 1.8.6c.8 0 1.5-.2 2.1-.6.6-.4 1-.9 1.2-1.5l3.6 1.1c-.5 1.4-1.4 2.6-2.6 3.4-1.2.8-2.7 1.3-4.4 1.3-2 0-3.8-.6-5.3-1.9s-2.1-3-2.1-5.1c0-2.2.7-3.9 2.1-5.2s3.2-1.9 5.4-1.9c2 0 3.7.6 5 1.9s1.9 3 1.9 5.1v.9H85.7v.1zm6.9-2.5c-.1-.8-.4-1.4-.9-1.9s-1.1-.7-1.9-.7-1.4.2-1.9.7-.8 1.1-.9 1.9h5.6z"/></svg>
